<mxfile modified="2021-06-03T03:31:25.256Z" host="app.diagrams.net" agent="5.0 (Macintosh; Intel Mac OS X 10_15_7) AppleWebKit/537.36 (KHTML, like Gecko) Chrome/90.0.4430.212 Safari/537.36" etag="IOYt2HPDczD_GAEWF0sQ" version="14.7.2" type="github" pages="6">
  <diagram id="X-ET9mHpOGj9Mq2T7B19" name="Page-1">
    <mxGraphModel dx="946" dy="613" grid="1" gridSize="10" guides="1" tooltips="1" connect="1" arrows="1" fold="1" page="1" pageScale="1" pageWidth="827" pageHeight="1169" math="0" shadow="0">
      <root>
        <mxCell id="0" />
        <mxCell id="1" parent="0" />
        <mxCell id="eCCoyoe4LkAvzwwunSuD-1" value="" style="rounded=1;whiteSpace=wrap;html=1;dashed=1;" parent="1" vertex="1">
          <mxGeometry x="220" y="508" width="480" height="60" as="geometry" />
        </mxCell>
        <mxCell id="eCCoyoe4LkAvzwwunSuD-2" value="" style="rounded=1;whiteSpace=wrap;html=1;dashed=1;" parent="1" vertex="1">
          <mxGeometry x="220" y="310" width="480" height="190" as="geometry" />
        </mxCell>
        <mxCell id="eCCoyoe4LkAvzwwunSuD-3" value="Invention" style="text;fontSize=24;align=center;verticalAlign=middle;html=1;fontColor=#FFFFFF;" parent="1" vertex="1">
          <mxGeometry x="299.5" y="228.5" width="190" height="70" as="geometry" />
        </mxCell>
        <mxCell id="eCCoyoe4LkAvzwwunSuD-4" value="Military" style="text;align=center;html=1;fontColor=#FFFFFF;fontSize=16;" parent="1" vertex="1">
          <mxGeometry x="569.5" y="198.5" width="40" height="40" as="geometry" />
        </mxCell>
        <mxCell id="eCCoyoe4LkAvzwwunSuD-5" value="Balance" style="text;align=center;html=1;fontColor=#FFFFFF;fontSize=16;" parent="1" vertex="1">
          <mxGeometry x="579.5" y="348.5" width="40" height="40" as="geometry" />
        </mxCell>
        <mxCell id="eCCoyoe4LkAvzwwunSuD-6" value="Model" style="rounded=1;whiteSpace=wrap;html=1;fillColor=#ffe6cc;strokeColor=#d79b00;" parent="1" vertex="1">
          <mxGeometry x="390" y="263" width="100" height="40" as="geometry" />
        </mxCell>
        <mxCell id="eCCoyoe4LkAvzwwunSuD-7" style="edgeStyle=orthogonalEdgeStyle;rounded=0;orthogonalLoop=1;jettySize=auto;html=1;exitX=0;exitY=0.5;exitDx=0;exitDy=0;entryX=0.5;entryY=0;entryDx=0;entryDy=0;" parent="1" source="eCCoyoe4LkAvzwwunSuD-8" target="eCCoyoe4LkAvzwwunSuD-19" edge="1">
          <mxGeometry relative="1" as="geometry" />
        </mxCell>
        <mxCell id="eCCoyoe4LkAvzwwunSuD-8" value="Program" style="rounded=1;whiteSpace=wrap;html=1;fillColor=#d5e8d4;strokeColor=#82b366;" parent="1" vertex="1">
          <mxGeometry x="390" y="328.5" width="100" height="40" as="geometry" />
        </mxCell>
        <mxCell id="eCCoyoe4LkAvzwwunSuD-9" style="edgeStyle=orthogonalEdgeStyle;rounded=0;orthogonalLoop=1;jettySize=auto;html=1;exitX=0.5;exitY=1;exitDx=0;exitDy=0;entryX=0.5;entryY=0;entryDx=0;entryDy=0;dashed=1;" parent="1" source="eCCoyoe4LkAvzwwunSuD-11" target="eCCoyoe4LkAvzwwunSuD-18" edge="1">
          <mxGeometry relative="1" as="geometry">
            <Array as="points">
              <mxPoint x="440" y="490" />
              <mxPoint x="505" y="490" />
            </Array>
          </mxGeometry>
        </mxCell>
        <mxCell id="eCCoyoe4LkAvzwwunSuD-10" style="edgeStyle=orthogonalEdgeStyle;rounded=0;orthogonalLoop=1;jettySize=auto;html=1;exitX=1;exitY=0.5;exitDx=0;exitDy=0;entryX=0;entryY=0.5;entryDx=0;entryDy=0;dashed=1;" parent="1" source="eCCoyoe4LkAvzwwunSuD-11" target="eCCoyoe4LkAvzwwunSuD-21" edge="1">
          <mxGeometry relative="1" as="geometry" />
        </mxCell>
        <mxCell id="eCCoyoe4LkAvzwwunSuD-11" value="Graph" style="rounded=1;whiteSpace=wrap;html=1;fillColor=#d5e8d4;strokeColor=#82b366;" parent="1" vertex="1">
          <mxGeometry x="390" y="438.5" width="100" height="40" as="geometry" />
        </mxCell>
        <mxCell id="eCCoyoe4LkAvzwwunSuD-12" value="" style="endArrow=classic;html=1;exitX=0.5;exitY=1;exitDx=0;exitDy=0;entryX=0.5;entryY=0;entryDx=0;entryDy=0;" parent="1" source="eCCoyoe4LkAvzwwunSuD-6" target="eCCoyoe4LkAvzwwunSuD-8" edge="1">
          <mxGeometry width="50" height="50" relative="1" as="geometry">
            <mxPoint x="560" y="434.8235294117647" as="sourcePoint" />
            <mxPoint x="610" y="384.8235294117647" as="targetPoint" />
          </mxGeometry>
        </mxCell>
        <mxCell id="eCCoyoe4LkAvzwwunSuD-13" value="" style="endArrow=classic;html=1;entryX=0.5;entryY=0;entryDx=0;entryDy=0;exitX=0.5;exitY=1;exitDx=0;exitDy=0;" parent="1" source="eCCoyoe4LkAvzwwunSuD-14" target="eCCoyoe4LkAvzwwunSuD-11" edge="1">
          <mxGeometry width="50" height="50" relative="1" as="geometry">
            <mxPoint x="280" y="370" as="sourcePoint" />
            <mxPoint x="330" y="320" as="targetPoint" />
          </mxGeometry>
        </mxCell>
        <mxCell id="eCCoyoe4LkAvzwwunSuD-14" value="Compile" style="text;html=1;strokeColor=none;fillColor=none;align=center;verticalAlign=middle;whiteSpace=wrap;rounded=0;" parent="1" vertex="1">
          <mxGeometry x="420" y="393.5" width="40" height="20" as="geometry" />
        </mxCell>
        <mxCell id="eCCoyoe4LkAvzwwunSuD-15" value="" style="endArrow=classic;html=1;entryX=0.5;entryY=0;entryDx=0;entryDy=0;exitX=0.5;exitY=1;exitDx=0;exitDy=0;" parent="1" source="eCCoyoe4LkAvzwwunSuD-8" target="eCCoyoe4LkAvzwwunSuD-14" edge="1">
          <mxGeometry width="50" height="50" relative="1" as="geometry">
            <mxPoint x="440" y="368.5" as="sourcePoint" />
            <mxPoint x="440" y="438.5" as="targetPoint" />
          </mxGeometry>
        </mxCell>
        <mxCell id="eCCoyoe4LkAvzwwunSuD-16" style="edgeStyle=orthogonalEdgeStyle;rounded=0;orthogonalLoop=1;jettySize=auto;html=1;exitX=0.5;exitY=1;exitDx=0;exitDy=0;entryX=1;entryY=0.5;entryDx=0;entryDy=0;dashed=1;" parent="1" source="eCCoyoe4LkAvzwwunSuD-17" target="eCCoyoe4LkAvzwwunSuD-18" edge="1">
          <mxGeometry relative="1" as="geometry" />
        </mxCell>
        <mxCell id="eCCoyoe4LkAvzwwunSuD-17" value="Graph" style="rounded=1;whiteSpace=wrap;html=1;fillColor=#d5e8d4;strokeColor=#82b366;" parent="1" vertex="1">
          <mxGeometry x="582" y="439" width="100" height="40" as="geometry" />
        </mxCell>
        <mxCell id="eCCoyoe4LkAvzwwunSuD-18" value="ParallelExecutor" style="rounded=1;whiteSpace=wrap;html=1;fillColor=#f8cecc;strokeColor=#b85450;" parent="1" vertex="1">
          <mxGeometry x="455" y="521" width="100" height="29" as="geometry" />
        </mxCell>
        <mxCell id="eCCoyoe4LkAvzwwunSuD-19" value="Executor" style="rounded=1;whiteSpace=wrap;html=1;fillColor=#f8cecc;strokeColor=#b85450;" parent="1" vertex="1">
          <mxGeometry x="295" y="521" width="100" height="29" as="geometry" />
        </mxCell>
        <mxCell id="eCCoyoe4LkAvzwwunSuD-20" style="edgeStyle=orthogonalEdgeStyle;rounded=0;orthogonalLoop=1;jettySize=auto;html=1;exitX=1;exitY=0.5;exitDx=0;exitDy=0;dashed=1;" parent="1" source="eCCoyoe4LkAvzwwunSuD-21" target="eCCoyoe4LkAvzwwunSuD-17" edge="1">
          <mxGeometry relative="1" as="geometry" />
        </mxCell>
        <mxCell id="eCCoyoe4LkAvzwwunSuD-21" value="Pass" style="rounded=1;whiteSpace=wrap;html=1;fillColor=#d5e8d4;strokeColor=#98D177;" parent="1" vertex="1">
          <mxGeometry x="511" y="439" width="52" height="40" as="geometry" />
        </mxCell>
        <mxCell id="eCCoyoe4LkAvzwwunSuD-22" value="" style="rounded=1;whiteSpace=wrap;html=1;dashed=1;" parent="1" vertex="1">
          <mxGeometry x="220" y="582" width="480" height="58" as="geometry" />
        </mxCell>
        <mxCell id="eCCoyoe4LkAvzwwunSuD-23" value="GPU" style="rounded=1;whiteSpace=wrap;html=1;fillColor=#dae8fc;strokeColor=#6c8ebf;" parent="1" vertex="1">
          <mxGeometry x="250" y="591" width="120" height="35" as="geometry" />
        </mxCell>
        <mxCell id="eCCoyoe4LkAvzwwunSuD-24" value="CPU" style="rounded=1;whiteSpace=wrap;html=1;fillColor=#dae8fc;strokeColor=#6c8ebf;" parent="1" vertex="1">
          <mxGeometry x="395" y="591" width="120" height="35" as="geometry" />
        </mxCell>
        <mxCell id="eCCoyoe4LkAvzwwunSuD-25" value="..." style="rounded=1;whiteSpace=wrap;html=1;fillColor=#dae8fc;strokeColor=#6c8ebf;" parent="1" vertex="1">
          <mxGeometry x="550" y="591" width="120" height="35" as="geometry" />
        </mxCell>
        <mxCell id="eCCoyoe4LkAvzwwunSuD-26" value="框架内模型表示" style="text;html=1;strokeColor=none;fillColor=none;align=center;verticalAlign=middle;whiteSpace=wrap;rounded=0;dashed=1;" parent="1" vertex="1">
          <mxGeometry x="220" y="310" width="120" height="20" as="geometry" />
        </mxCell>
        <mxCell id="eCCoyoe4LkAvzwwunSuD-27" value="" style="endArrow=classic;html=1;exitX=0.5;exitY=1;exitDx=0;exitDy=0;entryX=0.5;entryY=0;entryDx=0;entryDy=0;" parent="1" source="eCCoyoe4LkAvzwwunSuD-19" target="eCCoyoe4LkAvzwwunSuD-23" edge="1">
          <mxGeometry width="50" height="50" relative="1" as="geometry">
            <mxPoint x="100" y="590" as="sourcePoint" />
            <mxPoint x="150" y="540" as="targetPoint" />
          </mxGeometry>
        </mxCell>
        <mxCell id="eCCoyoe4LkAvzwwunSuD-28" value="" style="endArrow=classic;html=1;exitX=0.5;exitY=1;exitDx=0;exitDy=0;entryX=0.5;entryY=0;entryDx=0;entryDy=0;" parent="1" source="eCCoyoe4LkAvzwwunSuD-19" target="eCCoyoe4LkAvzwwunSuD-24" edge="1">
          <mxGeometry width="50" height="50" relative="1" as="geometry">
            <mxPoint x="290" y="560" as="sourcePoint" />
            <mxPoint x="320" y="589" as="targetPoint" />
          </mxGeometry>
        </mxCell>
        <mxCell id="eCCoyoe4LkAvzwwunSuD-29" value="" style="endArrow=classic;html=1;entryX=0.5;entryY=0;entryDx=0;entryDy=0;exitX=0.5;exitY=1;exitDx=0;exitDy=0;" parent="1" source="eCCoyoe4LkAvzwwunSuD-19" target="eCCoyoe4LkAvzwwunSuD-25" edge="1">
          <mxGeometry width="50" height="50" relative="1" as="geometry">
            <mxPoint x="340" y="560" as="sourcePoint" />
            <mxPoint x="465" y="589" as="targetPoint" />
          </mxGeometry>
        </mxCell>
        <mxCell id="eCCoyoe4LkAvzwwunSuD-30" value="" style="endArrow=classic;html=1;exitX=0.5;exitY=1;exitDx=0;exitDy=0;entryX=0.5;entryY=0;entryDx=0;entryDy=0;" parent="1" source="eCCoyoe4LkAvzwwunSuD-18" target="eCCoyoe4LkAvzwwunSuD-23" edge="1">
          <mxGeometry width="50" height="50" relative="1" as="geometry">
            <mxPoint x="100" y="590" as="sourcePoint" />
            <mxPoint x="150" y="540" as="targetPoint" />
          </mxGeometry>
        </mxCell>
        <mxCell id="eCCoyoe4LkAvzwwunSuD-31" value="" style="endArrow=classic;html=1;entryX=0.45;entryY=0;entryDx=0;entryDy=0;entryPerimeter=0;exitX=0.5;exitY=1;exitDx=0;exitDy=0;" parent="1" source="eCCoyoe4LkAvzwwunSuD-18" target="eCCoyoe4LkAvzwwunSuD-24" edge="1">
          <mxGeometry width="50" height="50" relative="1" as="geometry">
            <mxPoint x="590" y="550" as="sourcePoint" />
            <mxPoint x="320" y="589" as="targetPoint" />
          </mxGeometry>
        </mxCell>
        <mxCell id="eCCoyoe4LkAvzwwunSuD-32" value="" style="endArrow=classic;html=1;exitX=0.5;exitY=1;exitDx=0;exitDy=0;entryX=0.5;entryY=0;entryDx=0;entryDy=0;" parent="1" source="eCCoyoe4LkAvzwwunSuD-18" target="eCCoyoe4LkAvzwwunSuD-25" edge="1">
          <mxGeometry width="50" height="50" relative="1" as="geometry">
            <mxPoint x="440" y="550" as="sourcePoint" />
            <mxPoint x="610" y="590" as="targetPoint" />
          </mxGeometry>
        </mxCell>
      </root>
    </mxGraphModel>
  </diagram>
  <diagram name="sys_framework" id="O4EhSmhN2SbQFmK-GJIU">
    <mxGraphModel dx="946" dy="613" grid="1" gridSize="10" guides="1" tooltips="1" connect="1" arrows="1" fold="1" page="1" pageScale="1" pageWidth="827" pageHeight="1169" math="0" shadow="0">
      <root>
        <mxCell id="1Ae8VEsc_nZawgjxmAmC-0" />
        <mxCell id="1Ae8VEsc_nZawgjxmAmC-1" parent="1Ae8VEsc_nZawgjxmAmC-0" />
        <mxCell id="1Ae8VEsc_nZawgjxmAmC-34" value="" style="rounded=1;whiteSpace=wrap;html=1;dashed=1;" parent="1Ae8VEsc_nZawgjxmAmC-1" vertex="1">
          <mxGeometry x="49.5" y="338.5" width="120" height="170" as="geometry" />
        </mxCell>
        <mxCell id="1Ae8VEsc_nZawgjxmAmC-23" value="" style="rounded=1;whiteSpace=wrap;html=1;dashed=1;" parent="1Ae8VEsc_nZawgjxmAmC-1" vertex="1">
          <mxGeometry x="184.5" y="338.5" width="320" height="170" as="geometry" />
        </mxCell>
        <mxCell id="1Ae8VEsc_nZawgjxmAmC-21" value="Allocator" style="rounded=1;whiteSpace=wrap;html=1;strokeColor=#b85450;fillColor=#f8cecc;" parent="1Ae8VEsc_nZawgjxmAmC-1" vertex="1">
          <mxGeometry x="194.5" y="370.5" width="67" height="110" as="geometry" />
        </mxCell>
        <mxCell id="1Ae8VEsc_nZawgjxmAmC-2" value="" style="rounded=1;whiteSpace=wrap;html=1;strokeColor=#82b366;fillColor=#d5e8d4;" parent="1Ae8VEsc_nZawgjxmAmC-1" vertex="1">
          <mxGeometry x="54.5" y="99" width="700" height="50" as="geometry" />
        </mxCell>
        <mxCell id="1Ae8VEsc_nZawgjxmAmC-3" value="Python 端" style="text;html=1;strokeColor=none;fillColor=none;align=center;verticalAlign=middle;whiteSpace=wrap;rounded=0;dashed=1;" parent="1Ae8VEsc_nZawgjxmAmC-1" vertex="1">
          <mxGeometry x="49.5" y="114" width="70" height="20" as="geometry" />
        </mxCell>
        <mxCell id="1Ae8VEsc_nZawgjxmAmC-4" value="Variable" style="rounded=1;whiteSpace=wrap;html=1;strokeColor=#2D7600;fillColor=#60a917;fontColor=#ffffff;" parent="1Ae8VEsc_nZawgjxmAmC-1" vertex="1">
          <mxGeometry x="344.5" y="109" width="90" height="30" as="geometry" />
        </mxCell>
        <mxCell id="1Ae8VEsc_nZawgjxmAmC-6" value="Operator" style="rounded=1;whiteSpace=wrap;html=1;strokeColor=#2D7600;fillColor=#60a917;fontColor=#ffffff;" parent="1Ae8VEsc_nZawgjxmAmC-1" vertex="1">
          <mxGeometry x="244.5" y="109" width="90" height="30" as="geometry" />
        </mxCell>
        <mxCell id="1Ae8VEsc_nZawgjxmAmC-7" value="Layer" style="rounded=1;whiteSpace=wrap;html=1;strokeColor=#2D7600;fillColor=#60a917;fontColor=#ffffff;" parent="1Ae8VEsc_nZawgjxmAmC-1" vertex="1">
          <mxGeometry x="444.5" y="109" width="90" height="30" as="geometry" />
        </mxCell>
        <mxCell id="1Ae8VEsc_nZawgjxmAmC-9" value="Program" style="rounded=1;whiteSpace=wrap;html=1;strokeColor=#2D7600;fillColor=#60a917;fontColor=#ffffff;" parent="1Ae8VEsc_nZawgjxmAmC-1" vertex="1">
          <mxGeometry x="144.5" y="109" width="90" height="30" as="geometry" />
        </mxCell>
        <mxCell id="1Ae8VEsc_nZawgjxmAmC-10" value="IO" style="rounded=1;whiteSpace=wrap;html=1;strokeColor=#2D7600;fillColor=#60a917;fontColor=#ffffff;" parent="1Ae8VEsc_nZawgjxmAmC-1" vertex="1">
          <mxGeometry x="544.5" y="109" width="90" height="30" as="geometry" />
        </mxCell>
        <mxCell id="1Ae8VEsc_nZawgjxmAmC-11" value="Optimizer" style="rounded=1;whiteSpace=wrap;html=1;strokeColor=#2D7600;fillColor=#60a917;fontColor=#ffffff;" parent="1Ae8VEsc_nZawgjxmAmC-1" vertex="1">
          <mxGeometry x="644.5" y="109" width="90" height="30" as="geometry" />
        </mxCell>
        <mxCell id="1Ae8VEsc_nZawgjxmAmC-12" value="Pybind" style="rounded=1;whiteSpace=wrap;html=1;strokeColor=#432D57;fillColor=#76608a;fontColor=#ffffff;" parent="1Ae8VEsc_nZawgjxmAmC-1" vertex="1">
          <mxGeometry x="136.5" y="161" width="540" height="30" as="geometry" />
        </mxCell>
        <mxCell id="1Ae8VEsc_nZawgjxmAmC-13" value="ProgramDesc" style="rounded=1;whiteSpace=wrap;html=1;strokeColor=#BD7000;fillColor=#f0a30a;fontColor=#ffffff;" parent="1Ae8VEsc_nZawgjxmAmC-1" vertex="1">
          <mxGeometry x="136.5" y="201" width="540" height="30" as="geometry" />
        </mxCell>
        <mxCell id="1Ae8VEsc_nZawgjxmAmC-14" value="SSA Graph" style="rounded=1;whiteSpace=wrap;html=1;strokeColor=#B09500;fillColor=#e3c800;fontColor=#ffffff;" parent="1Ae8VEsc_nZawgjxmAmC-1" vertex="1">
          <mxGeometry x="346.5" y="241" width="330" height="30" as="geometry" />
        </mxCell>
        <mxCell id="1Ae8VEsc_nZawgjxmAmC-16" value="&lt;font&gt;Executor / Parallel Executor&lt;/font&gt;" style="rounded=1;whiteSpace=wrap;html=1;strokeColor=#3A5431;fillColor=#3399FF;fontColor=#ffffff;" parent="1Ae8VEsc_nZawgjxmAmC-1" vertex="1">
          <mxGeometry x="114.5" y="283" width="600" height="30" as="geometry" />
        </mxCell>
        <mxCell id="1Ae8VEsc_nZawgjxmAmC-17" value="C++ 端" style="text;html=1;strokeColor=none;fillColor=none;align=center;verticalAlign=middle;whiteSpace=wrap;rounded=0;dashed=1;" parent="1Ae8VEsc_nZawgjxmAmC-1" vertex="1">
          <mxGeometry x="44.5" y="206" width="70" height="20" as="geometry" />
        </mxCell>
        <mxCell id="1Ae8VEsc_nZawgjxmAmC-26" value="Scope" style="rounded=1;whiteSpace=wrap;html=1;strokeColor=#b85450;fillColor=#f8cecc;" parent="1Ae8VEsc_nZawgjxmAmC-1" vertex="1">
          <mxGeometry x="277.5" y="370.5" width="215" height="30" as="geometry" />
        </mxCell>
        <mxCell id="1Ae8VEsc_nZawgjxmAmC-27" value="Varaible" style="rounded=1;whiteSpace=wrap;html=1;strokeColor=#b85450;fillColor=#f8cecc;" parent="1Ae8VEsc_nZawgjxmAmC-1" vertex="1">
          <mxGeometry x="276.5" y="410.5" width="216" height="30" as="geometry" />
        </mxCell>
        <mxCell id="1Ae8VEsc_nZawgjxmAmC-28" value="LoDTensor" style="rounded=1;whiteSpace=wrap;html=1;strokeColor=#b85450;fillColor=#f8cecc;" parent="1Ae8VEsc_nZawgjxmAmC-1" vertex="1">
          <mxGeometry x="275.5" y="450.5" width="70" height="30" as="geometry" />
        </mxCell>
        <mxCell id="1Ae8VEsc_nZawgjxmAmC-29" value="&lt;font style=&quot;font-size: 11px&quot;&gt;SelectedRows&lt;/font&gt;" style="rounded=1;whiteSpace=wrap;html=1;strokeColor=#b85450;fillColor=#f8cecc;fontSize=7;" parent="1Ae8VEsc_nZawgjxmAmC-1" vertex="1">
          <mxGeometry x="358.5" y="450.5" width="90" height="30" as="geometry" />
        </mxCell>
        <mxCell id="1Ae8VEsc_nZawgjxmAmC-30" value="&lt;span style=&quot;font-size: 11px&quot;&gt;...&lt;/span&gt;" style="rounded=1;whiteSpace=wrap;html=1;strokeColor=#b85450;fillColor=#f8cecc;fontSize=7;" parent="1Ae8VEsc_nZawgjxmAmC-1" vertex="1">
          <mxGeometry x="460" y="450.5" width="29" height="30" as="geometry" />
        </mxCell>
        <mxCell id="1Ae8VEsc_nZawgjxmAmC-33" value="" style="rounded=1;whiteSpace=wrap;html=1;dashed=1;" parent="1Ae8VEsc_nZawgjxmAmC-1" vertex="1">
          <mxGeometry x="515.5" y="337" width="260" height="173" as="geometry" />
        </mxCell>
        <mxCell id="1Ae8VEsc_nZawgjxmAmC-35" value="OperatorBase" style="rounded=1;whiteSpace=wrap;html=1;strokeColor=#6c8ebf;fillColor=#dae8fc;" parent="1Ae8VEsc_nZawgjxmAmC-1" vertex="1">
          <mxGeometry x="540.5" y="351.5" width="215" height="30" as="geometry" />
        </mxCell>
        <mxCell id="1Ae8VEsc_nZawgjxmAmC-36" value="ControlFlowOp" style="rounded=1;whiteSpace=wrap;html=1;strokeColor=#6c8ebf;fillColor=#dae8fc;" parent="1Ae8VEsc_nZawgjxmAmC-1" vertex="1">
          <mxGeometry x="545.5" y="392" width="106" height="30" as="geometry" />
        </mxCell>
        <mxCell id="1Ae8VEsc_nZawgjxmAmC-37" value="CPUPlace" style="rounded=1;whiteSpace=wrap;html=1;strokeColor=#d79b00;fillColor=#ffe6cc;" parent="1Ae8VEsc_nZawgjxmAmC-1" vertex="1">
          <mxGeometry x="74" y="385.5" width="63" height="22" as="geometry" />
        </mxCell>
        <mxCell id="1Ae8VEsc_nZawgjxmAmC-38" value="&lt;span style=&quot;font-size: 11px&quot;&gt;GPU&lt;/span&gt;" style="rounded=1;whiteSpace=wrap;html=1;strokeColor=#6c8ebf;fillColor=#dae8fc;fontSize=7;" parent="1Ae8VEsc_nZawgjxmAmC-1" vertex="1">
          <mxGeometry x="619.5" y="433" width="70" height="30" as="geometry" />
        </mxCell>
        <mxCell id="1Ae8VEsc_nZawgjxmAmC-39" value="&lt;span style=&quot;font-size: 11px&quot;&gt;...&lt;/span&gt;" style="rounded=1;whiteSpace=wrap;html=1;strokeColor=#6c8ebf;fillColor=#dae8fc;fontSize=7;" parent="1Ae8VEsc_nZawgjxmAmC-1" vertex="1">
          <mxGeometry x="705.5" y="432" width="47" height="30" as="geometry" />
        </mxCell>
        <mxCell id="1Ae8VEsc_nZawgjxmAmC-40" value="OpKernel" style="rounded=1;whiteSpace=wrap;html=1;strokeColor=#6c8ebf;fillColor=#dae8fc;" parent="1Ae8VEsc_nZawgjxmAmC-1" vertex="1">
          <mxGeometry x="672.5" y="391.5" width="76" height="30" as="geometry" />
        </mxCell>
        <mxCell id="1Ae8VEsc_nZawgjxmAmC-41" value="FP16" style="rounded=1;whiteSpace=wrap;html=1;strokeColor=#6c8ebf;fillColor=#dae8fc;" parent="1Ae8VEsc_nZawgjxmAmC-1" vertex="1">
          <mxGeometry x="535.5" y="472" width="44" height="30" as="geometry" />
        </mxCell>
        <mxCell id="1Ae8VEsc_nZawgjxmAmC-42" value="&lt;span style=&quot;font-size: 11px&quot;&gt;FP32&lt;/span&gt;" style="rounded=1;whiteSpace=wrap;html=1;strokeColor=#6c8ebf;fillColor=#dae8fc;fontSize=7;" parent="1Ae8VEsc_nZawgjxmAmC-1" vertex="1">
          <mxGeometry x="585.5" y="473" width="40" height="30" as="geometry" />
        </mxCell>
        <mxCell id="1Ae8VEsc_nZawgjxmAmC-43" value="&lt;span style=&quot;font-size: 11px&quot;&gt;...&lt;/span&gt;" style="rounded=1;whiteSpace=wrap;html=1;strokeColor=#6c8ebf;fillColor=#dae8fc;fontSize=7;" parent="1Ae8VEsc_nZawgjxmAmC-1" vertex="1">
          <mxGeometry x="727.5" y="474" width="35" height="30" as="geometry" />
        </mxCell>
        <mxCell id="1Ae8VEsc_nZawgjxmAmC-44" value="&lt;span style=&quot;font-size: 11px&quot;&gt;FP64&lt;/span&gt;" style="rounded=1;whiteSpace=wrap;html=1;strokeColor=#6c8ebf;fillColor=#dae8fc;fontSize=7;" parent="1Ae8VEsc_nZawgjxmAmC-1" vertex="1">
          <mxGeometry x="634" y="474" width="40" height="30" as="geometry" />
        </mxCell>
        <mxCell id="1Ae8VEsc_nZawgjxmAmC-47" value="CUDAPlace" style="rounded=1;whiteSpace=wrap;html=1;strokeColor=#d79b00;fillColor=#ffe6cc;" parent="1Ae8VEsc_nZawgjxmAmC-1" vertex="1">
          <mxGeometry x="74" y="414.5" width="63" height="22" as="geometry" />
        </mxCell>
        <mxCell id="1Ae8VEsc_nZawgjxmAmC-48" value="CUDAPinnedPlace" style="rounded=1;whiteSpace=wrap;html=1;strokeColor=#d79b00;fillColor=#ffe6cc;" parent="1Ae8VEsc_nZawgjxmAmC-1" vertex="1">
          <mxGeometry x="55.5" y="443.5" width="108" height="22" as="geometry" />
        </mxCell>
        <mxCell id="1Ae8VEsc_nZawgjxmAmC-50" value="&lt;span style=&quot;font-size: 11px&quot;&gt;CPU&lt;/span&gt;" style="rounded=1;whiteSpace=wrap;html=1;strokeColor=#6c8ebf;fillColor=#dae8fc;fontSize=7;" parent="1Ae8VEsc_nZawgjxmAmC-1" vertex="1">
          <mxGeometry x="539.5" y="432" width="70" height="30" as="geometry" />
        </mxCell>
        <mxCell id="1Ae8VEsc_nZawgjxmAmC-51" value="&lt;span style=&quot;font-size: 11px&quot;&gt;INT8&lt;/span&gt;" style="rounded=1;whiteSpace=wrap;html=1;strokeColor=#6c8ebf;fillColor=#dae8fc;fontSize=7;" parent="1Ae8VEsc_nZawgjxmAmC-1" vertex="1">
          <mxGeometry x="680.5" y="474" width="40" height="30" as="geometry" />
        </mxCell>
        <mxCell id="8FFhQ4nDzxRtU5oSwWxu-0" value="" style="rounded=1;whiteSpace=wrap;html=1;strokeColor=#6c8ebf;fillColor=#dae8fc;" parent="1Ae8VEsc_nZawgjxmAmC-1" vertex="1">
          <mxGeometry x="20" y="534" width="780" height="50" as="geometry" />
        </mxCell>
        <mxCell id="8FFhQ4nDzxRtU5oSwWxu-1" value="异构设备" style="text;html=1;strokeColor=none;fillColor=none;align=center;verticalAlign=middle;whiteSpace=wrap;rounded=0;" parent="1Ae8VEsc_nZawgjxmAmC-1" vertex="1">
          <mxGeometry x="26" y="549" width="65" height="20" as="geometry" />
        </mxCell>
        <mxCell id="8FFhQ4nDzxRtU5oSwWxu-2" value="CPU Device" style="rounded=1;whiteSpace=wrap;html=1;strokeColor=#006EAF;fillColor=#1ba1e2;fontColor=#ffffff;" parent="1Ae8VEsc_nZawgjxmAmC-1" vertex="1">
          <mxGeometry x="111.5" y="544" width="90" height="30" as="geometry" />
        </mxCell>
        <mxCell id="8FFhQ4nDzxRtU5oSwWxu-3" value="CUDA Device" style="rounded=1;whiteSpace=wrap;html=1;strokeColor=#006EAF;fillColor=#1ba1e2;fontColor=#ffffff;" parent="1Ae8VEsc_nZawgjxmAmC-1" vertex="1">
          <mxGeometry x="217.5" y="544" width="90" height="30" as="geometry" />
        </mxCell>
        <mxCell id="8FFhQ4nDzxRtU5oSwWxu-4" value="AMD Device" style="rounded=1;whiteSpace=wrap;html=1;strokeColor=#006EAF;fillColor=#1ba1e2;fontColor=#ffffff;" parent="1Ae8VEsc_nZawgjxmAmC-1" vertex="1">
          <mxGeometry x="321.5" y="544" width="90" height="30" as="geometry" />
        </mxCell>
        <mxCell id="8FFhQ4nDzxRtU5oSwWxu-5" value="FPGA Device" style="rounded=1;whiteSpace=wrap;html=1;strokeColor=#006EAF;fillColor=#1ba1e2;fontColor=#ffffff;" parent="1Ae8VEsc_nZawgjxmAmC-1" vertex="1">
          <mxGeometry x="426.5" y="544" width="90" height="30" as="geometry" />
        </mxCell>
        <mxCell id="8FFhQ4nDzxRtU5oSwWxu-6" value="AMD Device" style="rounded=1;whiteSpace=wrap;html=1;strokeColor=#006EAF;fillColor=#1ba1e2;fontColor=#ffffff;" parent="1Ae8VEsc_nZawgjxmAmC-1" vertex="1">
          <mxGeometry x="532.5" y="544" width="90" height="30" as="geometry" />
        </mxCell>
        <mxCell id="8FFhQ4nDzxRtU5oSwWxu-7" value="..." style="rounded=1;whiteSpace=wrap;html=1;strokeColor=#006EAF;fillColor=#1ba1e2;fontColor=#ffffff;" parent="1Ae8VEsc_nZawgjxmAmC-1" vertex="1">
          <mxGeometry x="642.5" y="544" width="90" height="30" as="geometry" />
        </mxCell>
      </root>
    </mxGraphModel>
  </diagram>
  <diagram name="executor" id="D5RqdzRQlR4IdoULMpvH">
    <mxGraphModel dx="946" dy="613" grid="1" gridSize="10" guides="1" tooltips="1" connect="1" arrows="1" fold="1" page="1" pageScale="1" pageWidth="827" pageHeight="1169" math="0" shadow="0">
      <root>
        <mxCell id="5_EFfi6lEIM1u-_8l0Ec-0" />
        <mxCell id="5_EFfi6lEIM1u-_8l0Ec-1" parent="5_EFfi6lEIM1u-_8l0Ec-0" />
        <mxCell id="5_EFfi6lEIM1u-_8l0Ec-2" value="" style="rounded=1;whiteSpace=wrap;html=1;dashed=1;fillColor=#d5e8d4;strokeColor=#82b366;" parent="5_EFfi6lEIM1u-_8l0Ec-1" vertex="1">
          <mxGeometry x="240" y="210" width="140" height="301" as="geometry" />
        </mxCell>
        <mxCell id="5_EFfi6lEIM1u-_8l0Ec-3" value="" style="rounded=1;whiteSpace=wrap;html=1;dashed=1;fillColor=#B4C4B3;strokeColor=#82b366;" parent="5_EFfi6lEIM1u-_8l0Ec-1" vertex="1">
          <mxGeometry x="250" y="319" width="120" height="181" as="geometry" />
        </mxCell>
        <mxCell id="5_EFfi6lEIM1u-_8l0Ec-4" style="edgeStyle=orthogonalEdgeStyle;rounded=0;orthogonalLoop=1;jettySize=auto;html=1;exitX=1;exitY=0.5;exitDx=0;exitDy=0;entryX=0;entryY=0.5;entryDx=0;entryDy=0;" parent="5_EFfi6lEIM1u-_8l0Ec-1" source="5_EFfi6lEIM1u-_8l0Ec-5" target="5_EFfi6lEIM1u-_8l0Ec-8" edge="1">
          <mxGeometry relative="1" as="geometry" />
        </mxCell>
        <mxCell id="5_EFfi6lEIM1u-_8l0Ec-5" value="Model" style="rounded=1;whiteSpace=wrap;html=1;fillColor=#f0a30a;strokeColor=#BD7000;fontColor=#ffffff;" parent="5_EFfi6lEIM1u-_8l0Ec-1" vertex="1">
          <mxGeometry x="120" y="226.5" width="100" height="40" as="geometry" />
        </mxCell>
        <mxCell id="5_EFfi6lEIM1u-_8l0Ec-6" style="edgeStyle=orthogonalEdgeStyle;rounded=0;orthogonalLoop=1;jettySize=auto;html=1;exitX=0.5;exitY=1;exitDx=0;exitDy=0;entryX=0.5;entryY=0;entryDx=0;entryDy=0;" parent="5_EFfi6lEIM1u-_8l0Ec-1" source="5_EFfi6lEIM1u-_8l0Ec-16" target="5_EFfi6lEIM1u-_8l0Ec-10" edge="1">
          <mxGeometry relative="1" as="geometry" />
        </mxCell>
        <mxCell id="5_EFfi6lEIM1u-_8l0Ec-7" style="edgeStyle=orthogonalEdgeStyle;rounded=0;orthogonalLoop=1;jettySize=auto;html=1;exitX=1;exitY=0.5;exitDx=0;exitDy=0;entryX=0;entryY=0.5;entryDx=0;entryDy=0;" parent="5_EFfi6lEIM1u-_8l0Ec-1" source="5_EFfi6lEIM1u-_8l0Ec-8" target="5_EFfi6lEIM1u-_8l0Ec-15" edge="1">
          <mxGeometry relative="1" as="geometry" />
        </mxCell>
        <mxCell id="5_EFfi6lEIM1u-_8l0Ec-8" value="Program" style="rounded=1;whiteSpace=wrap;html=1;fillColor=#60a917;strokeColor=#2D7600;fontColor=#ffffff;" parent="5_EFfi6lEIM1u-_8l0Ec-1" vertex="1">
          <mxGeometry x="260" y="226.5" width="100" height="40" as="geometry" />
        </mxCell>
        <mxCell id="5_EFfi6lEIM1u-_8l0Ec-9" style="edgeStyle=orthogonalEdgeStyle;rounded=0;orthogonalLoop=1;jettySize=auto;html=1;exitX=0.5;exitY=1;exitDx=0;exitDy=0;entryX=0.5;entryY=0;entryDx=0;entryDy=0;" parent="5_EFfi6lEIM1u-_8l0Ec-1" source="5_EFfi6lEIM1u-_8l0Ec-10" target="5_EFfi6lEIM1u-_8l0Ec-12" edge="1">
          <mxGeometry relative="1" as="geometry" />
        </mxCell>
        <mxCell id="5_EFfi6lEIM1u-_8l0Ec-10" value="SSA Graph" style="rounded=1;whiteSpace=wrap;html=1;fillColor=#498011;strokeColor=#2D7600;fontColor=#ffffff;" parent="5_EFfi6lEIM1u-_8l0Ec-1" vertex="1">
          <mxGeometry x="260" y="334" width="100" height="40" as="geometry" />
        </mxCell>
        <mxCell id="5_EFfi6lEIM1u-_8l0Ec-11" style="edgeStyle=orthogonalEdgeStyle;rounded=0;orthogonalLoop=1;jettySize=auto;html=1;exitX=0.5;exitY=1;exitDx=0;exitDy=0;entryX=0.5;entryY=0;entryDx=0;entryDy=0;" parent="5_EFfi6lEIM1u-_8l0Ec-1" source="5_EFfi6lEIM1u-_8l0Ec-12" target="5_EFfi6lEIM1u-_8l0Ec-14" edge="1">
          <mxGeometry relative="1" as="geometry" />
        </mxCell>
        <mxCell id="5_EFfi6lEIM1u-_8l0Ec-12" value="PASS" style="rounded=1;whiteSpace=wrap;html=1;fillColor=#498011;strokeColor=#2D7600;fontColor=#ffffff;" parent="5_EFfi6lEIM1u-_8l0Ec-1" vertex="1">
          <mxGeometry x="260" y="394" width="100" height="40" as="geometry" />
        </mxCell>
        <mxCell id="5_EFfi6lEIM1u-_8l0Ec-13" style="edgeStyle=orthogonalEdgeStyle;rounded=0;orthogonalLoop=1;jettySize=auto;html=1;exitX=1;exitY=0.5;exitDx=0;exitDy=0;entryX=0;entryY=0.5;entryDx=0;entryDy=0;" parent="5_EFfi6lEIM1u-_8l0Ec-1" source="5_EFfi6lEIM1u-_8l0Ec-14" target="5_EFfi6lEIM1u-_8l0Ec-18" edge="1">
          <mxGeometry relative="1" as="geometry">
            <Array as="points" />
          </mxGeometry>
        </mxCell>
        <mxCell id="5_EFfi6lEIM1u-_8l0Ec-14" value="SSA Graph" style="rounded=1;whiteSpace=wrap;html=1;fillColor=#498011;strokeColor=#2D7600;fontColor=#ffffff;" parent="5_EFfi6lEIM1u-_8l0Ec-1" vertex="1">
          <mxGeometry x="260" y="452" width="100" height="40" as="geometry" />
        </mxCell>
        <mxCell id="5_EFfi6lEIM1u-_8l0Ec-15" value="Executor.run(...)" style="rounded=1;whiteSpace=wrap;html=1;fillColor=#d5e8d4;strokeColor=#82b366;" parent="5_EFfi6lEIM1u-_8l0Ec-1" vertex="1">
          <mxGeometry x="404" y="226.5" width="100" height="40" as="geometry" />
        </mxCell>
        <mxCell id="5_EFfi6lEIM1u-_8l0Ec-16" value="CompiledProgram" style="text;html=1;strokeColor=none;fillColor=none;align=center;verticalAlign=middle;whiteSpace=wrap;rounded=0;dashed=1;" parent="5_EFfi6lEIM1u-_8l0Ec-1" vertex="1">
          <mxGeometry x="290" y="289" width="40" height="20" as="geometry" />
        </mxCell>
        <mxCell id="5_EFfi6lEIM1u-_8l0Ec-17" style="edgeStyle=orthogonalEdgeStyle;rounded=0;orthogonalLoop=1;jettySize=auto;html=1;exitX=0.5;exitY=1;exitDx=0;exitDy=0;entryX=0.5;entryY=0;entryDx=0;entryDy=0;" parent="5_EFfi6lEIM1u-_8l0Ec-1" source="5_EFfi6lEIM1u-_8l0Ec-8" target="5_EFfi6lEIM1u-_8l0Ec-16" edge="1">
          <mxGeometry relative="1" as="geometry">
            <mxPoint x="310" y="279" as="sourcePoint" />
            <mxPoint x="310" y="334" as="targetPoint" />
          </mxGeometry>
        </mxCell>
        <mxCell id="5_EFfi6lEIM1u-_8l0Ec-18" value="Executor.run(...)" style="rounded=1;whiteSpace=wrap;html=1;fillColor=#d5e8d4;strokeColor=#82b366;" parent="5_EFfi6lEIM1u-_8l0Ec-1" vertex="1">
          <mxGeometry x="414" y="452" width="100" height="40" as="geometry" />
        </mxCell>
      </root>
    </mxGraphModel>
  </diagram>
  <diagram name="multi-nccl-stream" id="h0FtEKhKhaeCOY963aGd">
    <mxGraphModel dx="1773" dy="613" grid="1" gridSize="10" guides="1" tooltips="1" connect="1" arrows="1" fold="1" page="1" pageScale="1" pageWidth="827" pageHeight="1169" math="0" shadow="0">
      <root>
        <mxCell id="A3VdH5HaGKI3L7EbfTfd-0" />
        <mxCell id="A3VdH5HaGKI3L7EbfTfd-1" parent="A3VdH5HaGKI3L7EbfTfd-0" />
        <mxCell id="A3VdH5HaGKI3L7EbfTfd-21" value="" style="endArrow=none;html=1;strokeColor=#CCFFFF;strokeWidth=30;" parent="A3VdH5HaGKI3L7EbfTfd-1" edge="1">
          <mxGeometry width="50" height="50" relative="1" as="geometry">
            <mxPoint x="-10" y="146" as="sourcePoint" />
            <mxPoint x="620" y="146" as="targetPoint" />
          </mxGeometry>
        </mxCell>
        <mxCell id="A3VdH5HaGKI3L7EbfTfd-20" value="" style="endArrow=none;html=1;strokeColor=#FFFFCC;strokeWidth=30;" parent="A3VdH5HaGKI3L7EbfTfd-1" edge="1">
          <mxGeometry width="50" height="50" relative="1" as="geometry">
            <mxPoint x="-10" y="185.5" as="sourcePoint" />
            <mxPoint x="620" y="185.5" as="targetPoint" />
          </mxGeometry>
        </mxCell>
        <mxCell id="A3VdH5HaGKI3L7EbfTfd-19" value="" style="endArrow=none;html=1;strokeColor=#FFE6CC;strokeWidth=30;" parent="A3VdH5HaGKI3L7EbfTfd-1" edge="1">
          <mxGeometry width="50" height="50" relative="1" as="geometry">
            <mxPoint x="-10" y="225" as="sourcePoint" />
            <mxPoint x="620" y="225" as="targetPoint" />
          </mxGeometry>
        </mxCell>
        <mxCell id="A3VdH5HaGKI3L7EbfTfd-18" value="" style="endArrow=none;html=1;strokeColor=#FFCCCC;strokeWidth=30;" parent="A3VdH5HaGKI3L7EbfTfd-1" edge="1">
          <mxGeometry width="50" height="50" relative="1" as="geometry">
            <mxPoint x="-10" y="262" as="sourcePoint" />
            <mxPoint x="620" y="262" as="targetPoint" />
          </mxGeometry>
        </mxCell>
        <mxCell id="A3VdH5HaGKI3L7EbfTfd-3" value="All Reduce" style="rounded=0;whiteSpace=wrap;html=1;fillColor=#60a917;strokeColor=#2D7600;fontColor=#ffffff;" parent="A3VdH5HaGKI3L7EbfTfd-1" vertex="1">
          <mxGeometry x="280" y="170" width="120" height="30" as="geometry" />
        </mxCell>
        <mxCell id="A3VdH5HaGKI3L7EbfTfd-4" value="All Reduce" style="rounded=0;whiteSpace=wrap;html=1;fillColor=#60a917;strokeColor=#2D7600;fontColor=#ffffff;" parent="A3VdH5HaGKI3L7EbfTfd-1" vertex="1">
          <mxGeometry x="410" y="170" width="50" height="30" as="geometry" />
        </mxCell>
        <mxCell id="A3VdH5HaGKI3L7EbfTfd-5" value="All Reduce" style="rounded=0;whiteSpace=wrap;html=1;fillColor=#60a917;strokeColor=#2D7600;fontColor=#ffffff;" parent="A3VdH5HaGKI3L7EbfTfd-1" vertex="1">
          <mxGeometry x="355" y="130" width="90" height="30" as="geometry" />
        </mxCell>
        <mxCell id="A3VdH5HaGKI3L7EbfTfd-6" value="All Reduce" style="rounded=0;whiteSpace=wrap;html=1;fillColor=#60a917;strokeColor=#2D7600;fontColor=#ffffff;" parent="A3VdH5HaGKI3L7EbfTfd-1" vertex="1">
          <mxGeometry x="170" y="130" width="130" height="30" as="geometry" />
        </mxCell>
        <mxCell id="A3VdH5HaGKI3L7EbfTfd-7" value="All Reduce" style="rounded=0;whiteSpace=wrap;html=1;fillColor=#60a917;strokeColor=#2D7600;fontColor=#ffffff;" parent="A3VdH5HaGKI3L7EbfTfd-1" vertex="1">
          <mxGeometry x="150" y="210" width="130" height="30" as="geometry" />
        </mxCell>
        <mxCell id="A3VdH5HaGKI3L7EbfTfd-8" value="All Reduce" style="rounded=0;whiteSpace=wrap;html=1;fillColor=#60a917;strokeColor=#2D7600;fontColor=#ffffff;" parent="A3VdH5HaGKI3L7EbfTfd-1" vertex="1">
          <mxGeometry x="305" y="210" width="65" height="30" as="geometry" />
        </mxCell>
        <mxCell id="A3VdH5HaGKI3L7EbfTfd-9" value="All Reduce" style="rounded=0;whiteSpace=wrap;html=1;fillColor=#60a917;strokeColor=#2D7600;fontColor=#ffffff;" parent="A3VdH5HaGKI3L7EbfTfd-1" vertex="1">
          <mxGeometry x="385" y="210" width="120" height="30" as="geometry" />
        </mxCell>
        <mxCell id="A3VdH5HaGKI3L7EbfTfd-10" value="All Reduce" style="rounded=0;whiteSpace=wrap;html=1;fillColor=#60a917;strokeColor=#2D7600;fontColor=#ffffff;" parent="A3VdH5HaGKI3L7EbfTfd-1" vertex="1">
          <mxGeometry x="80" y="170" width="150" height="30" as="geometry" />
        </mxCell>
        <mxCell id="A3VdH5HaGKI3L7EbfTfd-12" value="conv2d_grad" style="rounded=0;whiteSpace=wrap;html=1;fillColor=#1ba1e2;strokeColor=#006EAF;fontColor=#ffffff;" parent="A3VdH5HaGKI3L7EbfTfd-1" vertex="1">
          <mxGeometry x="40" y="248" width="80" height="30" as="geometry" />
        </mxCell>
        <mxCell id="A3VdH5HaGKI3L7EbfTfd-13" value="matmul_grad" style="rounded=0;whiteSpace=wrap;html=1;fillColor=#1ba1e2;strokeColor=#006EAF;fontColor=#ffffff;" parent="A3VdH5HaGKI3L7EbfTfd-1" vertex="1">
          <mxGeometry x="123" y="248" width="107" height="30" as="geometry" />
        </mxCell>
        <mxCell id="A3VdH5HaGKI3L7EbfTfd-14" value="relu_grad" style="rounded=0;whiteSpace=wrap;html=1;fillColor=#1ba1e2;strokeColor=#006EAF;fontColor=#ffffff;" parent="A3VdH5HaGKI3L7EbfTfd-1" vertex="1">
          <mxGeometry x="233" y="248" width="57" height="30" as="geometry" />
        </mxCell>
        <mxCell id="A3VdH5HaGKI3L7EbfTfd-15" value="conv2d_grad" style="rounded=0;whiteSpace=wrap;html=1;fillColor=#1ba1e2;strokeColor=#006EAF;fontColor=#ffffff;" parent="A3VdH5HaGKI3L7EbfTfd-1" vertex="1">
          <mxGeometry x="293" y="248" width="80" height="30" as="geometry" />
        </mxCell>
        <mxCell id="A3VdH5HaGKI3L7EbfTfd-16" value="matmul_grad" style="rounded=0;whiteSpace=wrap;html=1;fillColor=#1ba1e2;strokeColor=#006EAF;fontColor=#ffffff;" parent="A3VdH5HaGKI3L7EbfTfd-1" vertex="1">
          <mxGeometry x="376" y="248" width="107" height="30" as="geometry" />
        </mxCell>
        <mxCell id="A3VdH5HaGKI3L7EbfTfd-17" value="relu_grad" style="rounded=0;whiteSpace=wrap;html=1;fillColor=#1ba1e2;strokeColor=#006EAF;fontColor=#ffffff;" parent="A3VdH5HaGKI3L7EbfTfd-1" vertex="1">
          <mxGeometry x="486" y="248" width="57" height="30" as="geometry" />
        </mxCell>
        <mxCell id="A3VdH5HaGKI3L7EbfTfd-22" value="Compute stream" style="text;html=1;strokeColor=none;fillColor=none;align=center;verticalAlign=middle;whiteSpace=wrap;rounded=0;" parent="A3VdH5HaGKI3L7EbfTfd-1" vertex="1">
          <mxGeometry x="-131" y="253" width="130" height="20" as="geometry" />
        </mxCell>
        <mxCell id="A3VdH5HaGKI3L7EbfTfd-23" value="NCCL stream0" style="text;html=1;strokeColor=none;fillColor=none;align=center;verticalAlign=middle;whiteSpace=wrap;rounded=0;" parent="A3VdH5HaGKI3L7EbfTfd-1" vertex="1">
          <mxGeometry x="-121" y="215" width="130" height="20" as="geometry" />
        </mxCell>
        <mxCell id="A3VdH5HaGKI3L7EbfTfd-24" value="NCCL stream1" style="text;html=1;strokeColor=none;fillColor=none;align=center;verticalAlign=middle;whiteSpace=wrap;rounded=0;" parent="A3VdH5HaGKI3L7EbfTfd-1" vertex="1">
          <mxGeometry x="-119" y="175" width="130" height="20" as="geometry" />
        </mxCell>
        <mxCell id="A3VdH5HaGKI3L7EbfTfd-25" value="NCCL stream2" style="text;html=1;strokeColor=none;fillColor=none;align=center;verticalAlign=middle;whiteSpace=wrap;rounded=0;" parent="A3VdH5HaGKI3L7EbfTfd-1" vertex="1">
          <mxGeometry x="-119" y="135" width="130" height="20" as="geometry" />
        </mxCell>
      </root>
    </mxGraphModel>
  </diagram>
  <diagram id="RNZVJm5ewr7RZcWOnCt7" name="new framework">
    <mxGraphModel dx="1113" dy="721" grid="1" gridSize="10" guides="1" tooltips="1" connect="1" arrows="1" fold="1" page="1" pageScale="1" pageWidth="827" pageHeight="1169" math="0" shadow="0">
      <root>
        <mxCell id="J8u7D67LxVpcrJOxdDHN-0" />
        <mxCell id="J8u7D67LxVpcrJOxdDHN-1" parent="J8u7D67LxVpcrJOxdDHN-0" />
        <mxCell id="J8u7D67LxVpcrJOxdDHN-74" value="" style="rounded=1;whiteSpace=wrap;html=1;arcSize=1;" vertex="1" parent="J8u7D67LxVpcrJOxdDHN-1">
          <mxGeometry x="170" y="160" width="840" height="500" as="geometry" />
        </mxCell>
        <mxCell id="J8u7D67LxVpcrJOxdDHN-3" value="" style="rounded=1;whiteSpace=wrap;html=1;dashed=1;" vertex="1" parent="J8u7D67LxVpcrJOxdDHN-1">
          <mxGeometry x="249.5" y="220" width="90.5" height="220" as="geometry" />
        </mxCell>
        <mxCell id="J8u7D67LxVpcrJOxdDHN-4" value="Allocator" style="rounded=1;whiteSpace=wrap;html=1;" vertex="1" parent="J8u7D67LxVpcrJOxdDHN-1">
          <mxGeometry x="400" y="560" width="570" height="31" as="geometry" />
        </mxCell>
        <mxCell id="J8u7D67LxVpcrJOxdDHN-5" value="" style="rounded=1;whiteSpace=wrap;html=1;" vertex="1" parent="J8u7D67LxVpcrJOxdDHN-1">
          <mxGeometry x="170" y="100" width="840" height="50" as="geometry" />
        </mxCell>
        <mxCell id="J8u7D67LxVpcrJOxdDHN-6" value="Python 端" style="text;html=1;align=center;verticalAlign=middle;whiteSpace=wrap;rounded=0;dashed=1;" vertex="1" parent="J8u7D67LxVpcrJOxdDHN-1">
          <mxGeometry x="179.5" y="115" width="70" height="20" as="geometry" />
        </mxCell>
        <mxCell id="J8u7D67LxVpcrJOxdDHN-7" value="Variable" style="rounded=1;whiteSpace=wrap;html=1;" vertex="1" parent="J8u7D67LxVpcrJOxdDHN-1">
          <mxGeometry x="486" y="110" width="90" height="30" as="geometry" />
        </mxCell>
        <mxCell id="J8u7D67LxVpcrJOxdDHN-8" value="Operator" style="rounded=1;whiteSpace=wrap;html=1;" vertex="1" parent="J8u7D67LxVpcrJOxdDHN-1">
          <mxGeometry x="380" y="110" width="90" height="30" as="geometry" />
        </mxCell>
        <mxCell id="J8u7D67LxVpcrJOxdDHN-9" value="Layer" style="rounded=1;whiteSpace=wrap;html=1;" vertex="1" parent="J8u7D67LxVpcrJOxdDHN-1">
          <mxGeometry x="592" y="110" width="90" height="30" as="geometry" />
        </mxCell>
        <mxCell id="J8u7D67LxVpcrJOxdDHN-10" value="Program" style="rounded=1;whiteSpace=wrap;html=1;" vertex="1" parent="J8u7D67LxVpcrJOxdDHN-1">
          <mxGeometry x="274.5" y="110" width="90" height="30" as="geometry" />
        </mxCell>
        <mxCell id="J8u7D67LxVpcrJOxdDHN-11" value="IO" style="rounded=1;whiteSpace=wrap;html=1;" vertex="1" parent="J8u7D67LxVpcrJOxdDHN-1">
          <mxGeometry x="698" y="110" width="90" height="30" as="geometry" />
        </mxCell>
        <mxCell id="J8u7D67LxVpcrJOxdDHN-12" value="Optimizer" style="rounded=1;whiteSpace=wrap;html=1;" vertex="1" parent="J8u7D67LxVpcrJOxdDHN-1">
          <mxGeometry x="804" y="110" width="90" height="30" as="geometry" />
        </mxCell>
        <mxCell id="J8u7D67LxVpcrJOxdDHN-13" value="Pybind" style="rounded=1;whiteSpace=wrap;html=1;" vertex="1" parent="J8u7D67LxVpcrJOxdDHN-1">
          <mxGeometry x="250" y="173" width="730" height="30" as="geometry" />
        </mxCell>
        <mxCell id="J8u7D67LxVpcrJOxdDHN-14" value="ProgramDesc" style="rounded=1;whiteSpace=wrap;html=1;" vertex="1" parent="J8u7D67LxVpcrJOxdDHN-1">
          <mxGeometry x="354.75" y="224.5" width="220" height="30" as="geometry" />
        </mxCell>
        <mxCell id="J8u7D67LxVpcrJOxdDHN-15" value="SSA Graph" style="rounded=1;whiteSpace=wrap;html=1;" vertex="1" parent="J8u7D67LxVpcrJOxdDHN-1">
          <mxGeometry x="454.75" y="270" width="120" height="30" as="geometry" />
        </mxCell>
        <mxCell id="J8u7D67LxVpcrJOxdDHN-16" value="&lt;font&gt;Executor&lt;/font&gt;" style="rounded=1;whiteSpace=wrap;html=1;" vertex="1" parent="J8u7D67LxVpcrJOxdDHN-1">
          <mxGeometry x="354.75" y="318" width="90" height="30" as="geometry" />
        </mxCell>
        <mxCell id="J8u7D67LxVpcrJOxdDHN-17" value="C++ 端" style="text;html=1;align=center;verticalAlign=middle;whiteSpace=wrap;rounded=0;dashed=1;" vertex="1" parent="J8u7D67LxVpcrJOxdDHN-1">
          <mxGeometry x="177" y="380" width="70" height="20" as="geometry" />
        </mxCell>
        <mxCell id="J8u7D67LxVpcrJOxdDHN-18" value="Scope" style="rounded=1;whiteSpace=wrap;html=1;" vertex="1" parent="J8u7D67LxVpcrJOxdDHN-1">
          <mxGeometry x="262.75" y="240" width="66.25" height="180" as="geometry" />
        </mxCell>
        <mxCell id="J8u7D67LxVpcrJOxdDHN-19" value="Varaible" style="rounded=1;whiteSpace=wrap;html=1;" vertex="1" parent="J8u7D67LxVpcrJOxdDHN-1">
          <mxGeometry x="400" y="464" width="570" height="31" as="geometry" />
        </mxCell>
        <mxCell id="J8u7D67LxVpcrJOxdDHN-20" value="LoDTensor" style="rounded=1;whiteSpace=wrap;html=1;" vertex="1" parent="J8u7D67LxVpcrJOxdDHN-1">
          <mxGeometry x="401.5" y="514" width="84.5" height="26" as="geometry" />
        </mxCell>
        <mxCell id="J8u7D67LxVpcrJOxdDHN-21" value="&lt;font style=&quot;font-size: 11px&quot;&gt;SelectedRows&lt;/font&gt;" style="rounded=1;whiteSpace=wrap;html=1;fontSize=7;" vertex="1" parent="J8u7D67LxVpcrJOxdDHN-1">
          <mxGeometry x="633" y="514" width="95" height="27.5" as="geometry" />
        </mxCell>
        <mxCell id="J8u7D67LxVpcrJOxdDHN-22" value="&lt;span style=&quot;font-size: 11px&quot;&gt;...&lt;/span&gt;" style="rounded=1;whiteSpace=wrap;html=1;fontSize=7;" vertex="1" parent="J8u7D67LxVpcrJOxdDHN-1">
          <mxGeometry x="900.5" y="512.75" width="29" height="30" as="geometry" />
        </mxCell>
        <mxCell id="J8u7D67LxVpcrJOxdDHN-24" value="OperatorBase" style="rounded=1;whiteSpace=wrap;html=1;" vertex="1" parent="J8u7D67LxVpcrJOxdDHN-1">
          <mxGeometry x="360" y="373" width="220" height="30" as="geometry" />
        </mxCell>
        <mxCell id="J8u7D67LxVpcrJOxdDHN-26" value="CPUPlace" style="rounded=1;whiteSpace=wrap;html=1;" vertex="1" parent="J8u7D67LxVpcrJOxdDHN-1">
          <mxGeometry x="250" y="611.25" width="80.5" height="33" as="geometry" />
        </mxCell>
        <mxCell id="J8u7D67LxVpcrJOxdDHN-29" value="OpKernel" style="rounded=1;whiteSpace=wrap;html=1;" vertex="1" parent="J8u7D67LxVpcrJOxdDHN-1">
          <mxGeometry x="610" y="418" width="220" height="30" as="geometry" />
        </mxCell>
        <mxCell id="J8u7D67LxVpcrJOxdDHN-34" value="CUDAPlace" style="rounded=1;whiteSpace=wrap;html=1;" vertex="1" parent="J8u7D67LxVpcrJOxdDHN-1">
          <mxGeometry x="360" y="611.25" width="85.25" height="33" as="geometry" />
        </mxCell>
        <mxCell id="J8u7D67LxVpcrJOxdDHN-35" value="CUDAPinnedPlace" style="rounded=1;whiteSpace=wrap;html=1;" vertex="1" parent="J8u7D67LxVpcrJOxdDHN-1">
          <mxGeometry x="478" y="611.75" width="123.5" height="32.5" as="geometry" />
        </mxCell>
        <mxCell id="J8u7D67LxVpcrJOxdDHN-38" value="" style="rounded=1;whiteSpace=wrap;html=1;" vertex="1" parent="J8u7D67LxVpcrJOxdDHN-1">
          <mxGeometry x="170" y="670" width="840" height="50" as="geometry" />
        </mxCell>
        <mxCell id="J8u7D67LxVpcrJOxdDHN-39" value="异构设备" style="text;html=1;align=center;verticalAlign=middle;whiteSpace=wrap;rounded=0;" vertex="1" parent="J8u7D67LxVpcrJOxdDHN-1">
          <mxGeometry x="179.5" y="685" width="65" height="20" as="geometry" />
        </mxCell>
        <mxCell id="J8u7D67LxVpcrJOxdDHN-40" value="CPU Device" style="rounded=1;whiteSpace=wrap;html=1;" vertex="1" parent="J8u7D67LxVpcrJOxdDHN-1">
          <mxGeometry x="274.5" y="680" width="90" height="30" as="geometry" />
        </mxCell>
        <mxCell id="J8u7D67LxVpcrJOxdDHN-41" value="CUDA Device" style="rounded=1;whiteSpace=wrap;html=1;" vertex="1" parent="J8u7D67LxVpcrJOxdDHN-1">
          <mxGeometry x="396" y="680" width="90" height="30" as="geometry" />
        </mxCell>
        <mxCell id="J8u7D67LxVpcrJOxdDHN-42" value="AMD Device" style="rounded=1;whiteSpace=wrap;html=1;" vertex="1" parent="J8u7D67LxVpcrJOxdDHN-1">
          <mxGeometry x="517" y="680" width="90" height="30" as="geometry" />
        </mxCell>
        <mxCell id="J8u7D67LxVpcrJOxdDHN-43" value="FPGA Device" style="rounded=1;whiteSpace=wrap;html=1;" vertex="1" parent="J8u7D67LxVpcrJOxdDHN-1">
          <mxGeometry x="638" y="680" width="90" height="30" as="geometry" />
        </mxCell>
        <mxCell id="J8u7D67LxVpcrJOxdDHN-44" value="AMD Device" style="rounded=1;whiteSpace=wrap;html=1;" vertex="1" parent="J8u7D67LxVpcrJOxdDHN-1">
          <mxGeometry x="759" y="680" width="90" height="30" as="geometry" />
        </mxCell>
        <mxCell id="J8u7D67LxVpcrJOxdDHN-45" value="..." style="rounded=1;whiteSpace=wrap;html=1;" vertex="1" parent="J8u7D67LxVpcrJOxdDHN-1">
          <mxGeometry x="880" y="680" width="60" height="30" as="geometry" />
        </mxCell>
        <mxCell id="J8u7D67LxVpcrJOxdDHN-46" value="Tracer" style="rounded=1;whiteSpace=wrap;html=1;" vertex="1" parent="J8u7D67LxVpcrJOxdDHN-1">
          <mxGeometry x="610" y="224.5" width="100" height="30" as="geometry" />
        </mxCell>
        <mxCell id="J8u7D67LxVpcrJOxdDHN-47" value="OpBase" style="rounded=1;whiteSpace=wrap;html=1;" vertex="1" parent="J8u7D67LxVpcrJOxdDHN-1">
          <mxGeometry x="610" y="318" width="220" height="30" as="geometry" />
        </mxCell>
        <mxCell id="J8u7D67LxVpcrJOxdDHN-59" value="XPUPlace" style="rounded=1;whiteSpace=wrap;html=1;" vertex="1" parent="J8u7D67LxVpcrJOxdDHN-1">
          <mxGeometry x="638" y="610" width="80" height="32.5" as="geometry" />
        </mxCell>
        <mxCell id="J8u7D67LxVpcrJOxdDHN-60" value="NPUPlace" style="rounded=1;whiteSpace=wrap;html=1;" vertex="1" parent="J8u7D67LxVpcrJOxdDHN-1">
          <mxGeometry x="750" y="610" width="80" height="32.5" as="geometry" />
        </mxCell>
        <mxCell id="J8u7D67LxVpcrJOxdDHN-61" value="..." style="rounded=1;whiteSpace=wrap;html=1;" vertex="1" parent="J8u7D67LxVpcrJOxdDHN-1">
          <mxGeometry x="860" y="610" width="50" height="32.5" as="geometry" />
        </mxCell>
        <mxCell id="J8u7D67LxVpcrJOxdDHN-63" value="Engine" style="rounded=1;whiteSpace=wrap;html=1;" vertex="1" parent="J8u7D67LxVpcrJOxdDHN-1">
          <mxGeometry x="728" y="224.5" width="100" height="30" as="geometry" />
        </mxCell>
        <mxCell id="J8u7D67LxVpcrJOxdDHN-65" value="GradOpNode" style="rounded=1;whiteSpace=wrap;html=1;" vertex="1" parent="J8u7D67LxVpcrJOxdDHN-1">
          <mxGeometry x="728" y="270" width="100" height="30" as="geometry" />
        </mxCell>
        <mxCell id="J8u7D67LxVpcrJOxdDHN-66" value="" style="endArrow=none;dashed=1;html=1;" edge="1" parent="J8u7D67LxVpcrJOxdDHN-1">
          <mxGeometry width="50" height="50" relative="1" as="geometry">
            <mxPoint x="595" y="360" as="sourcePoint" />
            <mxPoint x="594.75" y="212" as="targetPoint" />
          </mxGeometry>
        </mxCell>
        <mxCell id="J8u7D67LxVpcrJOxdDHN-67" value="&lt;span style=&quot;font-size: 11px&quot;&gt;LoDTensorArray&lt;/span&gt;" style="rounded=1;whiteSpace=wrap;html=1;fontSize=7;" vertex="1" parent="J8u7D67LxVpcrJOxdDHN-1">
          <mxGeometry x="760" y="514" width="110" height="27.5" as="geometry" />
        </mxCell>
        <mxCell id="J8u7D67LxVpcrJOxdDHN-68" value="" style="rounded=1;whiteSpace=wrap;html=1;dashed=1;" vertex="1" parent="J8u7D67LxVpcrJOxdDHN-1">
          <mxGeometry x="844" y="220" width="130" height="220" as="geometry" />
        </mxCell>
        <mxCell id="J8u7D67LxVpcrJOxdDHN-69" value="VarNameMap" style="rounded=1;whiteSpace=wrap;html=1;" vertex="1" parent="J8u7D67LxVpcrJOxdDHN-1">
          <mxGeometry x="856" y="250" width="105.75" height="33.5" as="geometry" />
        </mxCell>
        <mxCell id="J8u7D67LxVpcrJOxdDHN-70" value="VarBase" style="rounded=1;whiteSpace=wrap;html=1;" vertex="1" parent="J8u7D67LxVpcrJOxdDHN-1">
          <mxGeometry x="856.5" y="309.25" width="105.5" height="30" as="geometry" />
        </mxCell>
        <mxCell id="J8u7D67LxVpcrJOxdDHN-71" value="VariableWrapper" style="rounded=1;whiteSpace=wrap;html=1;" vertex="1" parent="J8u7D67LxVpcrJOxdDHN-1">
          <mxGeometry x="856.25" y="366.5" width="105.5" height="33.5" as="geometry" />
        </mxCell>
        <mxCell id="J8u7D67LxVpcrJOxdDHN-72" value="DeviceContext" style="rounded=1;whiteSpace=wrap;html=1;" vertex="1" parent="J8u7D67LxVpcrJOxdDHN-1">
          <mxGeometry x="250" y="460" width="120" height="130" as="geometry" />
        </mxCell>
        <mxCell id="J8u7D67LxVpcrJOxdDHN-73" value="&lt;font&gt;&amp;nbsp;Parallel Executor&lt;/font&gt;" style="rounded=1;whiteSpace=wrap;html=1;" vertex="1" parent="J8u7D67LxVpcrJOxdDHN-1">
          <mxGeometry x="454.75" y="318" width="120" height="30" as="geometry" />
        </mxCell>
        <mxCell id="J8u7D67LxVpcrJOxdDHN-76" value="OperatorWithKernel" style="rounded=1;whiteSpace=wrap;html=1;" vertex="1" parent="J8u7D67LxVpcrJOxdDHN-1">
          <mxGeometry x="610" y="373" width="220" height="30" as="geometry" />
        </mxCell>
        <mxCell id="J8u7D67LxVpcrJOxdDHN-80" value="&lt;font style=&quot;font-size: 11px&quot;&gt;Tensor&lt;/font&gt;" style="rounded=1;whiteSpace=wrap;html=1;fontSize=7;" vertex="1" parent="J8u7D67LxVpcrJOxdDHN-1">
          <mxGeometry x="510.5" y="514" width="95" height="27.5" as="geometry" />
        </mxCell>
        <mxCell id="J8u7D67LxVpcrJOxdDHN-85" value="..." style="rounded=1;whiteSpace=wrap;html=1;" vertex="1" parent="J8u7D67LxVpcrJOxdDHN-1">
          <mxGeometry x="920" y="110" width="50" height="30" as="geometry" />
        </mxCell>
        <mxCell id="J8u7D67LxVpcrJOxdDHN-88" value="" style="endArrow=none;dashed=1;html=1;" edge="1" parent="J8u7D67LxVpcrJOxdDHN-1">
          <mxGeometry width="50" height="50" relative="1" as="geometry">
            <mxPoint x="354.75" y="360" as="sourcePoint" />
            <mxPoint x="834.75" y="360" as="targetPoint" />
          </mxGeometry>
        </mxCell>
      </root>
    </mxGraphModel>
  </diagram>
  <diagram id="B4NgPt0GMP7c1Km_FiBL" name="new-framework-chg">
    <mxGraphModel dx="1113" dy="721" grid="1" gridSize="10" guides="1" tooltips="1" connect="1" arrows="1" fold="1" page="1" pageScale="1" pageWidth="827" pageHeight="1169" math="0" shadow="0">
      <root>
        <mxCell id="3yTXE4JHwC5naW5yCq1A-0" />
        <mxCell id="3yTXE4JHwC5naW5yCq1A-1" parent="3yTXE4JHwC5naW5yCq1A-0" />
        <mxCell id="qtImNsUYAU6DxmircKF5-0" value="" style="rounded=1;whiteSpace=wrap;html=1;arcSize=1;" vertex="1" parent="3yTXE4JHwC5naW5yCq1A-1">
          <mxGeometry x="170" y="160" width="820" height="500" as="geometry" />
        </mxCell>
        <mxCell id="qtImNsUYAU6DxmircKF5-1" value="" style="rounded=1;whiteSpace=wrap;html=1;dashed=1;" vertex="1" parent="3yTXE4JHwC5naW5yCq1A-1">
          <mxGeometry x="249.5" y="220" width="90.5" height="220" as="geometry" />
        </mxCell>
        <mxCell id="qtImNsUYAU6DxmircKF5-2" value="Allocator" style="rounded=1;whiteSpace=wrap;html=1;" vertex="1" parent="3yTXE4JHwC5naW5yCq1A-1">
          <mxGeometry x="400" y="560" width="540" height="31" as="geometry" />
        </mxCell>
        <mxCell id="qtImNsUYAU6DxmircKF5-3" value="" style="rounded=1;whiteSpace=wrap;html=1;" vertex="1" parent="3yTXE4JHwC5naW5yCq1A-1">
          <mxGeometry x="170" y="100" width="820" height="50" as="geometry" />
        </mxCell>
        <mxCell id="qtImNsUYAU6DxmircKF5-4" value="Python 端" style="text;html=1;align=center;verticalAlign=middle;whiteSpace=wrap;rounded=0;dashed=1;" vertex="1" parent="3yTXE4JHwC5naW5yCq1A-1">
          <mxGeometry x="179.5" y="115" width="70" height="20" as="geometry" />
        </mxCell>
        <mxCell id="qtImNsUYAU6DxmircKF5-5" value="Variable" style="rounded=1;whiteSpace=wrap;html=1;" vertex="1" parent="3yTXE4JHwC5naW5yCq1A-1">
          <mxGeometry x="486" y="110" width="90" height="30" as="geometry" />
        </mxCell>
        <mxCell id="qtImNsUYAU6DxmircKF5-6" value="Operator" style="rounded=1;whiteSpace=wrap;html=1;" vertex="1" parent="3yTXE4JHwC5naW5yCq1A-1">
          <mxGeometry x="380" y="110" width="90" height="30" as="geometry" />
        </mxCell>
        <mxCell id="qtImNsUYAU6DxmircKF5-7" value="Layer" style="rounded=1;whiteSpace=wrap;html=1;" vertex="1" parent="3yTXE4JHwC5naW5yCq1A-1">
          <mxGeometry x="592" y="110" width="90" height="30" as="geometry" />
        </mxCell>
        <mxCell id="qtImNsUYAU6DxmircKF5-8" value="Program" style="rounded=1;whiteSpace=wrap;html=1;" vertex="1" parent="3yTXE4JHwC5naW5yCq1A-1">
          <mxGeometry x="274.5" y="110" width="90" height="30" as="geometry" />
        </mxCell>
        <mxCell id="qtImNsUYAU6DxmircKF5-9" value="IO" style="rounded=1;whiteSpace=wrap;html=1;" vertex="1" parent="3yTXE4JHwC5naW5yCq1A-1">
          <mxGeometry x="698" y="110" width="90" height="30" as="geometry" />
        </mxCell>
        <mxCell id="qtImNsUYAU6DxmircKF5-10" value="Optimizer" style="rounded=1;whiteSpace=wrap;html=1;" vertex="1" parent="3yTXE4JHwC5naW5yCq1A-1">
          <mxGeometry x="804" y="110" width="90" height="30" as="geometry" />
        </mxCell>
        <mxCell id="qtImNsUYAU6DxmircKF5-11" value="Pybind" style="rounded=1;whiteSpace=wrap;html=1;" vertex="1" parent="3yTXE4JHwC5naW5yCq1A-1">
          <mxGeometry x="250" y="173" width="710" height="30" as="geometry" />
        </mxCell>
        <mxCell id="qtImNsUYAU6DxmircKF5-12" value="ProgramDesc" style="rounded=1;whiteSpace=wrap;html=1;" vertex="1" parent="3yTXE4JHwC5naW5yCq1A-1">
          <mxGeometry x="354.75" y="224.5" width="235.25" height="30" as="geometry" />
        </mxCell>
        <mxCell id="qtImNsUYAU6DxmircKF5-13" value="SSA Graph" style="rounded=1;whiteSpace=wrap;html=1;" vertex="1" parent="3yTXE4JHwC5naW5yCq1A-1">
          <mxGeometry x="454.75" y="270" width="135.25" height="30" as="geometry" />
        </mxCell>
        <mxCell id="qtImNsUYAU6DxmircKF5-14" value="&lt;font&gt;兼容Executor&lt;/font&gt;" style="rounded=1;whiteSpace=wrap;html=1;fontStyle=1" vertex="1" parent="3yTXE4JHwC5naW5yCq1A-1">
          <mxGeometry x="354.75" y="318" width="90" height="30" as="geometry" />
        </mxCell>
        <mxCell id="qtImNsUYAU6DxmircKF5-15" value="C++ 端" style="text;html=1;align=center;verticalAlign=middle;whiteSpace=wrap;rounded=0;dashed=1;" vertex="1" parent="3yTXE4JHwC5naW5yCq1A-1">
          <mxGeometry x="177" y="380" width="70" height="20" as="geometry" />
        </mxCell>
        <mxCell id="qtImNsUYAU6DxmircKF5-16" value="Scope" style="rounded=1;whiteSpace=wrap;html=1;" vertex="1" parent="3yTXE4JHwC5naW5yCq1A-1">
          <mxGeometry x="262.75" y="240" width="66.25" height="180" as="geometry" />
        </mxCell>
        <mxCell id="qtImNsUYAU6DxmircKF5-17" value="Varaible" style="rounded=1;whiteSpace=wrap;html=1;" vertex="1" parent="3yTXE4JHwC5naW5yCq1A-1">
          <mxGeometry x="400" y="464" width="180" height="31" as="geometry" />
        </mxCell>
        <mxCell id="qtImNsUYAU6DxmircKF5-18" value="LoDTensor" style="rounded=1;whiteSpace=wrap;html=1;" vertex="1" parent="3yTXE4JHwC5naW5yCq1A-1">
          <mxGeometry x="401.5" y="514" width="84.5" height="26" as="geometry" />
        </mxCell>
        <mxCell id="qtImNsUYAU6DxmircKF5-19" value="&lt;font style=&quot;font-size: 11px&quot;&gt;SelectedRows&lt;/font&gt;" style="rounded=1;whiteSpace=wrap;html=1;fontSize=7;" vertex="1" parent="3yTXE4JHwC5naW5yCq1A-1">
          <mxGeometry x="520" y="514" width="95" height="27.5" as="geometry" />
        </mxCell>
        <mxCell id="qtImNsUYAU6DxmircKF5-20" value="&lt;span style=&quot;font-size: 11px&quot;&gt;...&lt;/span&gt;" style="rounded=1;whiteSpace=wrap;html=1;fontSize=7;" vertex="1" parent="3yTXE4JHwC5naW5yCq1A-1">
          <mxGeometry x="910" y="511.5" width="29" height="30" as="geometry" />
        </mxCell>
        <mxCell id="qtImNsUYAU6DxmircKF5-21" value="OperatorBase" style="rounded=1;whiteSpace=wrap;html=1;" vertex="1" parent="3yTXE4JHwC5naW5yCq1A-1">
          <mxGeometry x="360" y="373" width="210" height="30" as="geometry" />
        </mxCell>
        <mxCell id="qtImNsUYAU6DxmircKF5-22" value="CPUPlace" style="rounded=1;whiteSpace=wrap;html=1;" vertex="1" parent="3yTXE4JHwC5naW5yCq1A-1">
          <mxGeometry x="250" y="611.25" width="80.5" height="33" as="geometry" />
        </mxCell>
        <mxCell id="qtImNsUYAU6DxmircKF5-24" value="CUDAPlace" style="rounded=1;whiteSpace=wrap;html=1;" vertex="1" parent="3yTXE4JHwC5naW5yCq1A-1">
          <mxGeometry x="360" y="611.25" width="85.25" height="33" as="geometry" />
        </mxCell>
        <mxCell id="qtImNsUYAU6DxmircKF5-25" value="CUDAPinnedPlace" style="rounded=1;whiteSpace=wrap;html=1;" vertex="1" parent="3yTXE4JHwC5naW5yCq1A-1">
          <mxGeometry x="478" y="611.75" width="123.5" height="32.5" as="geometry" />
        </mxCell>
        <mxCell id="qtImNsUYAU6DxmircKF5-26" value="" style="rounded=1;whiteSpace=wrap;html=1;" vertex="1" parent="3yTXE4JHwC5naW5yCq1A-1">
          <mxGeometry x="170" y="670" width="820" height="50" as="geometry" />
        </mxCell>
        <mxCell id="qtImNsUYAU6DxmircKF5-27" value="异构设备" style="text;html=1;align=center;verticalAlign=middle;whiteSpace=wrap;rounded=0;" vertex="1" parent="3yTXE4JHwC5naW5yCq1A-1">
          <mxGeometry x="179.5" y="685" width="65" height="20" as="geometry" />
        </mxCell>
        <mxCell id="qtImNsUYAU6DxmircKF5-28" value="CPU Device" style="rounded=1;whiteSpace=wrap;html=1;" vertex="1" parent="3yTXE4JHwC5naW5yCq1A-1">
          <mxGeometry x="274.5" y="680" width="90" height="30" as="geometry" />
        </mxCell>
        <mxCell id="qtImNsUYAU6DxmircKF5-29" value="CUDA Device" style="rounded=1;whiteSpace=wrap;html=1;" vertex="1" parent="3yTXE4JHwC5naW5yCq1A-1">
          <mxGeometry x="396" y="680" width="90" height="30" as="geometry" />
        </mxCell>
        <mxCell id="qtImNsUYAU6DxmircKF5-30" value="AMD Device" style="rounded=1;whiteSpace=wrap;html=1;" vertex="1" parent="3yTXE4JHwC5naW5yCq1A-1">
          <mxGeometry x="517" y="680" width="90" height="30" as="geometry" />
        </mxCell>
        <mxCell id="qtImNsUYAU6DxmircKF5-31" value="FPGA Device" style="rounded=1;whiteSpace=wrap;html=1;" vertex="1" parent="3yTXE4JHwC5naW5yCq1A-1">
          <mxGeometry x="638" y="680" width="90" height="30" as="geometry" />
        </mxCell>
        <mxCell id="qtImNsUYAU6DxmircKF5-32" value="AMD Device" style="rounded=1;whiteSpace=wrap;html=1;" vertex="1" parent="3yTXE4JHwC5naW5yCq1A-1">
          <mxGeometry x="759" y="680" width="90" height="30" as="geometry" />
        </mxCell>
        <mxCell id="qtImNsUYAU6DxmircKF5-33" value="..." style="rounded=1;whiteSpace=wrap;html=1;" vertex="1" parent="3yTXE4JHwC5naW5yCq1A-1">
          <mxGeometry x="880" y="680" width="60" height="30" as="geometry" />
        </mxCell>
        <mxCell id="qtImNsUYAU6DxmircKF5-34" value="New Tracer" style="rounded=1;whiteSpace=wrap;html=1;fontStyle=1" vertex="1" parent="3yTXE4JHwC5naW5yCq1A-1">
          <mxGeometry x="634" y="224.5" width="100" height="30" as="geometry" />
        </mxCell>
        <mxCell id="qtImNsUYAU6DxmircKF5-36" value="XPUPlace" style="rounded=1;whiteSpace=wrap;html=1;" vertex="1" parent="3yTXE4JHwC5naW5yCq1A-1">
          <mxGeometry x="638" y="610" width="80" height="32.5" as="geometry" />
        </mxCell>
        <mxCell id="qtImNsUYAU6DxmircKF5-37" value="NPUPlace" style="rounded=1;whiteSpace=wrap;html=1;" vertex="1" parent="3yTXE4JHwC5naW5yCq1A-1">
          <mxGeometry x="750" y="610" width="80" height="32.5" as="geometry" />
        </mxCell>
        <mxCell id="qtImNsUYAU6DxmircKF5-38" value="..." style="rounded=1;whiteSpace=wrap;html=1;" vertex="1" parent="3yTXE4JHwC5naW5yCq1A-1">
          <mxGeometry x="860" y="610" width="50" height="32.5" as="geometry" />
        </mxCell>
        <mxCell id="qtImNsUYAU6DxmircKF5-39" value="New Engine" style="rounded=1;whiteSpace=wrap;html=1;fontStyle=1" vertex="1" parent="3yTXE4JHwC5naW5yCq1A-1">
          <mxGeometry x="752" y="224.5" width="100" height="30" as="geometry" />
        </mxCell>
        <mxCell id="qtImNsUYAU6DxmircKF5-40" value="GradNode" style="rounded=1;whiteSpace=wrap;html=1;fontStyle=1;fillColor=#d5e8d4;strokeColor=#82b366;" vertex="1" parent="3yTXE4JHwC5naW5yCq1A-1">
          <mxGeometry x="751" y="288" width="100" height="30" as="geometry" />
        </mxCell>
        <mxCell id="qtImNsUYAU6DxmircKF5-41" value="" style="endArrow=none;dashed=1;html=1;" edge="1" parent="3yTXE4JHwC5naW5yCq1A-1">
          <mxGeometry width="50" height="50" relative="1" as="geometry">
            <mxPoint x="612" y="360" as="sourcePoint" />
            <mxPoint x="611.7499999999998" y="212" as="targetPoint" />
          </mxGeometry>
        </mxCell>
        <mxCell id="qtImNsUYAU6DxmircKF5-42" value="&lt;span style=&quot;font-size: 11px&quot;&gt;LoDTensorArray&lt;/span&gt;" style="rounded=1;whiteSpace=wrap;html=1;fontSize=7;" vertex="1" parent="3yTXE4JHwC5naW5yCq1A-1">
          <mxGeometry x="650" y="514" width="110" height="27.5" as="geometry" />
        </mxCell>
        <mxCell id="qtImNsUYAU6DxmircKF5-47" value="DeviceContext" style="rounded=1;whiteSpace=wrap;html=1;" vertex="1" parent="3yTXE4JHwC5naW5yCq1A-1">
          <mxGeometry x="250" y="460" width="120" height="130" as="geometry" />
        </mxCell>
        <mxCell id="qtImNsUYAU6DxmircKF5-48" value="&lt;font&gt;&amp;nbsp;兼容Parallel Executor&lt;/font&gt;" style="rounded=1;whiteSpace=wrap;html=1;fontStyle=1" vertex="1" parent="3yTXE4JHwC5naW5yCq1A-1">
          <mxGeometry x="454.75" y="318" width="135.25" height="30" as="geometry" />
        </mxCell>
        <mxCell id="qtImNsUYAU6DxmircKF5-50" value="&lt;font style=&quot;font-size: 11px&quot;&gt;Tensor&lt;/font&gt;" style="rounded=1;whiteSpace=wrap;html=1;fontSize=7;fontStyle=1" vertex="1" parent="3yTXE4JHwC5naW5yCq1A-1">
          <mxGeometry x="785" y="514" width="95" height="27.5" as="geometry" />
        </mxCell>
        <mxCell id="qtImNsUYAU6DxmircKF5-51" value="..." style="rounded=1;whiteSpace=wrap;html=1;" vertex="1" parent="3yTXE4JHwC5naW5yCq1A-1">
          <mxGeometry x="920" y="110" width="30" height="30" as="geometry" />
        </mxCell>
        <mxCell id="qtImNsUYAU6DxmircKF5-52" value="" style="endArrow=none;dashed=1;html=1;" edge="1" parent="3yTXE4JHwC5naW5yCq1A-1">
          <mxGeometry width="50" height="50" relative="1" as="geometry">
            <mxPoint x="369.7499999999998" y="360" as="sourcePoint" />
            <mxPoint x="849.75" y="360" as="targetPoint" />
          </mxGeometry>
        </mxCell>
        <mxCell id="qtImNsUYAU6DxmircKF5-53" value="FunctionBasedOperator" style="rounded=1;whiteSpace=wrap;html=1;fontStyle=1;fillColor=#d5e8d4;strokeColor=#82b366;" vertex="1" parent="3yTXE4JHwC5naW5yCq1A-1">
          <mxGeometry x="644" y="373" width="210" height="30" as="geometry" />
        </mxCell>
        <mxCell id="qtImNsUYAU6DxmircKF5-54" value="FuncKernel" style="rounded=1;whiteSpace=wrap;html=1;fontStyle=1;fillColor=#d5e8d4;strokeColor=#82b366;" vertex="1" parent="3yTXE4JHwC5naW5yCq1A-1">
          <mxGeometry x="644" y="420" width="210" height="30" as="geometry" />
        </mxCell>
        <mxCell id="IIZkZnWPSr-e8iHlgEPQ-0" value="" style="shape=flexArrow;endArrow=classic;html=1;endWidth=29.411764705882355;endSize=10.141176470588235;width=20;fillColor=#d5e8d4;strokeColor=#82b366;" edge="1" parent="3yTXE4JHwC5naW5yCq1A-1">
          <mxGeometry width="50" height="50" relative="1" as="geometry">
            <mxPoint x="908.82" y="230" as="sourcePoint" />
            <mxPoint x="908.82" y="440" as="targetPoint" />
          </mxGeometry>
        </mxCell>
        <mxCell id="IIZkZnWPSr-e8iHlgEPQ-1" value="" style="shape=flexArrow;endArrow=classic;html=1;endWidth=25.7439446366782;endSize=6.611764705882353;width=14.117647058823529;fillColor=#d5e8d4;strokeColor=#82b366;" edge="1" parent="3yTXE4JHwC5naW5yCq1A-1">
          <mxGeometry width="50" height="50" relative="1" as="geometry">
            <mxPoint x="752" y="464" as="sourcePoint" />
            <mxPoint x="752" y="500" as="targetPoint" />
          </mxGeometry>
        </mxCell>
      </root>
    </mxGraphModel>
  </diagram>
</mxfile>
